<svg width="21" height="20" viewBox="0 0 21 20" fill="none" xmlns="http://www.w3.org/2000/svg">
<path d="M7.72266 18.7514C8.17909 18.7514 8.5491 18.376 8.5491 17.9128C8.5491 17.4497 8.17909 17.0742 7.72266 17.0742C7.26622 17.0742 6.89621 17.4497 6.89621 17.9128C6.89621 18.376 7.26622 18.7514 7.72266 18.7514Z" stroke="#1D2123" stroke-width="1.5" stroke-linecap="round" stroke-linejoin="round"/>
<path d="M16.8136 18.7514C17.2701 18.7514 17.6401 18.376 17.6401 17.9128C17.6401 17.4497 17.2701 17.0742 16.8136 17.0742C16.3572 17.0742 15.9872 17.4497 15.9872 17.9128C15.9872 18.376 16.3572 18.7514 16.8136 18.7514Z" stroke="#1D2123" stroke-width="1.5" stroke-linecap="round" stroke-linejoin="round"/>
<path d="M1.11115 1.14081H4.41693L6.63181 12.3697C6.70738 12.7557 6.91437 13.1026 7.21655 13.3494C7.51873 13.5962 7.89685 13.7273 8.2847 13.7198H16.3178C16.7056 13.7273 17.0837 13.5962 17.3859 13.3494C17.6881 13.1026 17.8951 12.7557 17.9706 12.3697L19.293 5.33381H5.24338" stroke="#1D2123" stroke-width="1.5" stroke-linecap="round" stroke-linejoin="round"/>
</svg>
