<svg width="18" height="18" viewBox="0 0 18 18" fill="none" xmlns="http://www.w3.org/2000/svg">
<path fill-rule="evenodd" clip-rule="evenodd" d="M13.5786 10.6504C13.0236 12.4354 11.6403 13.6713 9.79948 13.9438C6.99031 14.3596 4.23198 12.2296 4.01364 9.39628C3.78698 6.45628 6.10614 4.00045 9.00031 4.00045C9.66948 4.00045 10.3078 4.13211 10.8911 4.37045C11.0936 4.45295 11.3228 4.38211 11.4261 4.19045L12.622 1.98461C12.7353 1.77378 12.6536 1.50211 12.4353 1.40378C11.3878 0.930448 10.2261 0.667114 9.00281 0.667114C4.31781 0.667114 0.535311 4.53045 0.669478 9.24461C0.791978 13.5454 4.34198 17.1438 8.63948 17.3263C13.2611 17.5213 17.0945 13.9546 17.327 9.43545C17.3361 9.27045 17.3328 8.30961 17.3295 7.74628C17.3286 7.51628 17.142 7.33378 16.9128 7.33378H9.41364C9.18364 7.33378 8.99698 7.51961 8.99698 7.75045V10.2338C8.99698 10.4629 9.18364 10.6504 9.41364 10.6504H13.5786" fill="white"/>
</svg>
