<svg width="22" height="16" viewBox="0 0 22 16" fill="none" xmlns="http://www.w3.org/2000/svg">
<path d="M11 11.1818C12.7259 11.1818 14.125 9.75726 14.125 7.99999C14.125 6.24272 12.7259 4.81818 11 4.81818C9.27411 4.81818 7.875 6.24272 7.875 7.99999C7.875 9.75726 9.27411 11.1818 11 11.1818Z" stroke="#4F4F4F" stroke-width="1.5" stroke-linecap="round" stroke-linejoin="round"/>
<path d="M18.2917 1.63637H3.70833C2.55774 1.63637 1.625 2.58607 1.625 3.75758V12.2424C1.625 13.4139 2.55774 14.3636 3.70833 14.3636H18.2917C19.4423 14.3636 20.375 13.4139 20.375 12.2424V3.75758C20.375 2.58607 19.4423 1.63637 18.2917 1.63637Z" stroke="#4F4F4F" stroke-width="1.5" stroke-linecap="round" stroke-linejoin="round"/>
<path d="M17.25 8H17.2604" stroke="#4F4F4F" stroke-width="1.5" stroke-linecap="round" stroke-linejoin="round"/>
<path d="M4.75 8H4.76042" stroke="#4F4F4F" stroke-width="1.5" stroke-linecap="round" stroke-linejoin="round"/>
</svg>
