<svg width="305" height="228" viewBox="0 0 305 228" fill="none" xmlns="http://www.w3.org/2000/svg">
<path fill-rule="evenodd" clip-rule="evenodd" d="M84.8281 151.47C84.8281 187.075 113.787 215.94 149.51 215.94C185.233 215.94 214.192 187.075 214.192 151.47C214.192 115.864 185.233 87.0002 149.51 87.0002C113.787 87.0002 84.8281 115.864 84.8281 151.47Z" fill="#FCFBD9"/>
<path fill-rule="evenodd" clip-rule="evenodd" d="M172.862 77.2188L121.116 106.996L69.3711 77.2188L121.116 47.4416L172.862 77.2188Z" fill="white"/>
<path fill-rule="evenodd" clip-rule="evenodd" d="M172.862 77.2188L121.116 106.996L69.3711 77.2188L121.116 47.4416L172.862 77.2188Z" stroke="#081F2D" stroke-width="2.036" stroke-linejoin="round"/>
<path d="M121.116 47.4415V106.996" stroke="#081F2D" stroke-width="2.036" stroke-linejoin="round"/>
<path fill-rule="evenodd" clip-rule="evenodd" d="M140.178 71.8065C142.549 73.0438 149.891 77.0034 153.218 84.4046C153.774 85.6415 155.064 88.5896 153.898 89.8439C152.466 91.3841 148.102 89.5901 146.416 88.7647C140.998 86.1104 125.301 75.2755 104.75 59.6852C112.734 61.3922 127.158 65.0132 140.178 71.8065Z" fill="#081F2D"/>
<path fill-rule="evenodd" clip-rule="evenodd" d="M140.178 71.8065C142.549 73.0438 149.891 77.0034 153.218 84.4046C153.774 85.6415 155.064 88.5896 153.898 89.8439C152.466 91.3841 148.102 89.5901 146.416 88.7647C140.998 86.1104 125.301 75.2755 104.75 59.6852C112.734 61.3922 127.158 65.0132 140.178 71.8065Z" stroke="#081F2D" stroke-width="2.036" stroke-linecap="round" stroke-linejoin="round"/>
<mask id="mask0" style="mask-type:alpha" maskUnits="userSpaceOnUse" x="103" y="12" width="55" height="92">
<path fill-rule="evenodd" clip-rule="evenodd" d="M140.55 12.16C139.132 12.1642 137.736 12.9854 136.541 13.8438C136.207 13.0279 135.165 12.738 134.831 12.6445C130.865 11.5402 124.725 16.7333 120.65 21.812C120.705 21.4803 120.671 21.193 120.512 20.9562C120.178 20.4569 119.448 20.4045 119.177 20.3851C116.947 20.2251 113.357 22.7962 110.079 27.7343C103.769 37.2427 103.623 47.9583 103.688 51.0412C103.699 51.5493 104.365 56.718 105.695 67.0347C106.949 76.7573 107.054 77.4626 107.115 79.0385C107.287 83.448 106.942 89.9529 104.26 98.0837L132.543 103.542C133.125 98.7814 134.498 91.8076 138.184 84.2494C142.698 74.9964 146.633 73.161 152.264 61.6877C154.433 57.2664 160.494 44.9179 156.605 41.3881C155.463 40.3514 153.859 40.435 153.394 40.4594C148.576 40.7105 144.06 47.5703 141.97 57.4446C142.351 49.8153 143.684 43.8851 144.875 39.7966C148.096 28.7291 148.849 26.3321 148.849 26.3321C150.77 20.2168 152.068 16.5824 150.203 14.3933C149.336 13.3741 147.841 12.7365 146.462 12.8847C145.44 12.9941 144.534 13.539 143.6 14.6824C143.596 14.1303 143.458 13.6614 143.152 13.2818C142.606 12.6054 141.626 12.3226 141.49 12.2846C141.185 12.1999 140.878 12.1611 140.574 12.16H140.55Z" fill="white"/>
</mask>
<g mask="url(#mask0)">
<path fill-rule="evenodd" clip-rule="evenodd" d="M140.55 12.16C139.132 12.1642 137.736 12.9854 136.541 13.8438C136.207 13.0279 135.165 12.738 134.831 12.6445C130.865 11.5402 124.725 16.7333 120.65 21.812C120.705 21.4803 120.671 21.193 120.512 20.9562C120.178 20.4569 119.448 20.4045 119.177 20.3851C116.947 20.2251 113.357 22.7962 110.079 27.7343C103.769 37.2427 103.623 47.9583 103.688 51.0412C103.699 51.5493 104.365 56.718 105.695 67.0347C106.949 76.7573 107.054 77.4626 107.115 79.0385C107.287 83.448 106.942 89.9529 104.26 98.0837L132.543 103.542C133.125 98.7814 134.498 91.8076 138.184 84.2494C142.698 74.9964 146.633 73.161 152.264 61.6877C154.433 57.2664 160.494 44.9179 156.605 41.3881C155.463 40.3514 153.859 40.435 153.394 40.4594C148.576 40.7105 144.06 47.5703 141.97 57.4446C142.351 49.8153 143.684 43.8851 144.875 39.7966C148.096 28.7291 148.849 26.3321 148.849 26.3321C150.77 20.2168 152.068 16.5824 150.203 14.3933C149.336 13.3741 147.841 12.7365 146.462 12.8847C145.44 12.9941 144.534 13.539 143.6 14.6824C143.596 14.1303 143.458 13.6614 143.152 13.2818C142.606 12.6054 141.626 12.3226 141.49 12.2846C141.185 12.1999 140.878 12.1611 140.574 12.16H140.55Z" fill="url(#paint0_linear)"/>
</g>
<path d="M133.047 40.6301C134.323 36.2951 135.904 31.6165 137.873 26.6895C139.945 21.5036 142.141 16.8087 144.314 12.6177" stroke="#081F2D" stroke-width="2.036"/>
<path d="M122.109 38.7518C122.603 35.4694 123.788 30.3386 126.935 24.8111C130.424 18.6832 134.764 14.8095 137.51 12.7096" stroke="#081F2D" stroke-width="2.036"/>
<path d="M112.93 39.746C113.45 36.5217 114.525 32.2087 116.868 27.5556C118.236 24.8401 119.744 22.5886 121.142 20.7825" stroke="#081F2D" stroke-width="2.036"/>
<path d="M141.907 59.8379C141.863 59.16 141.862 58.3498 141.97 57.4446C142.119 56.1952 142.427 55.151 142.729 54.3571" stroke="#081F2D" stroke-width="2.036"/>
<path fill-rule="evenodd" clip-rule="evenodd" d="M72.9531 183.419L119.254 208.466C122.8 196.828 148.926 104.203 150.783 98.9283C151.907 95.7325 153.041 92.5629 154.183 89.4195C154.171 89.4408 154.136 89.5046 154.095 89.5692C154.066 89.6259 154.029 89.6764 153.993 89.7269C153.963 89.7699 153.926 89.814 153.894 89.8436C152.469 91.3815 148.104 89.5909 146.417 88.764C140.999 86.1116 125.302 75.2786 104.749 59.6879C101.868 72.7026 75.835 170.405 72.9531 183.419Z" fill="#B29ADC"/>
<path d="M151.097 98.0424V98.0424C146.278 98.5215 141.439 97.3557 137.372 94.7356L102.031 71.969" stroke="#081F2D" stroke-width="2.036"/>
<path d="M153.218 84.4044C153.774 85.6417 155.064 88.5894 153.897 89.8441C152.466 91.3839 148.102 89.5899 146.416 88.7645C140.998 86.1102 125.301 75.2757 104.75 59.685" stroke="#081F2D" stroke-width="2.036" stroke-linecap="round" stroke-linejoin="round"/>
<path fill-rule="evenodd" clip-rule="evenodd" d="M172.863 136.773L121.117 166.55V106.996L172.863 77.219V136.773Z" fill="#C3E1A1"/>
<path fill-rule="evenodd" clip-rule="evenodd" d="M121.117 166.551L69.3711 136.773V77.2187L121.117 106.996V166.551Z" fill="#C3E1A1"/>
<path fill-rule="evenodd" clip-rule="evenodd" d="M185.799 99.5517L134.053 129.329L121.117 106.996L172.863 77.2187L185.799 99.5517Z" fill="white"/>
<path fill-rule="evenodd" clip-rule="evenodd" d="M185.799 99.5517L134.053 129.329L121.117 106.996L172.863 77.2187L185.799 99.5517Z" stroke="#081F2D" stroke-width="2.036" stroke-linejoin="round"/>
<path fill-rule="evenodd" clip-rule="evenodd" d="M185.799 159.106L134.053 188.883L121.117 166.55L172.863 136.773L185.799 159.106Z" fill="white"/>
<path fill-rule="evenodd" clip-rule="evenodd" d="M185.799 159.106L134.053 188.883L121.117 166.55L172.863 136.773L185.799 159.106Z" stroke="#081F2D" stroke-width="2.036" stroke-linejoin="round"/>
<path fill-rule="evenodd" clip-rule="evenodd" d="M121.115 106.996L108.179 129.329L56.4336 99.5518L69.3698 77.2189L121.115 106.996Z" fill="white"/>
<path fill-rule="evenodd" clip-rule="evenodd" d="M121.115 106.996L108.179 129.329L56.4336 99.5518L69.3698 77.2189L121.115 106.996Z" stroke="#081F2D" stroke-width="2.036" stroke-linejoin="round"/>
<path fill-rule="evenodd" clip-rule="evenodd" d="M121.115 166.551L108.179 188.884L56.4336 159.106L69.3698 136.773L121.115 166.551Z" fill="white"/>
<path fill-rule="evenodd" clip-rule="evenodd" d="M121.115 166.551L108.179 188.884L56.4336 159.106L69.3698 136.773L121.115 166.551Z" stroke="#081F2D" stroke-width="2.036" stroke-linejoin="round"/>
<path d="M72.9531 130.325L82.8203 136.003" stroke="#081F2D" stroke-width="2.036" stroke-linejoin="round"/>
<path d="M72.9531 133.678L82.8203 139.356" stroke="#081F2D" stroke-width="2.036" stroke-linejoin="round"/>
<path d="M121.116 106.996V166.55" stroke="#081F2D" stroke-width="2.036" stroke-linejoin="round"/>
<path fill-rule="evenodd" clip-rule="evenodd" d="M240.652 71.3134C230.548 81.3841 214.167 81.3841 204.062 71.3134C193.958 61.2426 193.958 44.9148 204.062 34.8436C214.167 24.7729 230.548 24.7729 240.652 34.8436C250.756 44.9148 250.756 61.2426 240.652 71.3134Z" fill="#1BB5C8"/>
<path fill-rule="evenodd" clip-rule="evenodd" d="M228.92 47.7486C228.92 48.8167 228.051 49.6828 226.979 49.6828C225.908 49.6828 225.039 48.8167 225.039 47.7486C225.039 46.6804 225.908 45.8144 226.979 45.8144C228.051 45.8144 228.92 46.6804 228.92 47.7486Z" fill="#081F2D"/>
<path d="M217.09 61.0772C220.639 57.5382 225.739 56.4856 230.211 57.9194" stroke="#081F2D" stroke-width="3.393"/>
<path fill-rule="evenodd" clip-rule="evenodd" d="M217.092 47.7486C217.092 48.8167 216.223 49.6828 215.151 49.6828C214.079 49.6828 213.211 48.8167 213.211 47.7486C213.211 46.6804 214.079 45.8144 215.151 45.8144C216.223 45.8144 217.092 46.6804 217.092 47.7486Z" fill="#081F2D"/>
<defs>
<linearGradient id="paint0_linear" x1="205.926" y1="89.2025" x2="116.81" y2="35.0851" gradientUnits="userSpaceOnUse">
<stop stop-color="#FF5607"/>
<stop offset="1" stop-color="#FFA700"/>
</linearGradient>
</defs>
</svg>
